<svg width="28" height="28" viewBox="0 0 28 28" fill="none" xmlns="http://www.w3.org/2000/svg">
<path d="M5.80008 20.8C6.93341 19.9333 8.20008 19.2498 9.60008 18.7493C11.0001 18.2498 12.4667 18 14.0001 18C15.5334 18 17.0001 18.2498 18.4001 18.7493C19.8001 19.2498 21.0667 19.9333 22.2001 20.8C22.9779 19.8889 23.5836 18.8555 24.0174 17.7C24.4503 16.5444 24.6667 15.3111 24.6667 14C24.6667 11.0444 23.6281 8.52754 21.5507 6.44932C19.4725 4.37199 16.9556 3.33332 14.0001 3.33332C11.0445 3.33332 8.52808 4.37199 6.45075 6.44932C4.37253 8.52754 3.33341 11.0444 3.33341 14C3.33341 15.3111 3.5503 16.5444 3.98408 17.7C4.41697 18.8555 5.0223 19.8889 5.80008 20.8ZM14.0001 15.3333C12.689 15.3333 11.5832 14.8835 10.6827 13.984C9.78319 13.0835 9.33341 11.9778 9.33341 10.6667C9.33341 9.35555 9.78319 8.24977 10.6827 7.34932C11.5832 6.44977 12.689 5.99999 14.0001 5.99999C15.3112 5.99999 16.417 6.44977 17.3174 7.34932C18.217 8.24977 18.6667 9.35555 18.6667 10.6667C18.6667 11.9778 18.217 13.0835 17.3174 13.984C16.417 14.8835 15.3112 15.3333 14.0001 15.3333ZM14.0001 27.3333C12.1556 27.3333 10.4223 26.9831 8.80008 26.2827C7.17786 25.5831 5.76675 24.6333 4.56675 23.4333C3.36675 22.2333 2.41697 20.8222 1.71741 19.2C1.01697 17.5778 0.666748 15.8444 0.666748 14C0.666748 12.1555 1.01697 10.4222 1.71741 8.79999C2.41697 7.17777 3.36675 5.76666 4.56675 4.56666C5.76675 3.36666 7.17786 2.41643 8.80008 1.71599C10.4223 1.01643 12.1556 0.666656 14.0001 0.666656C15.8445 0.666656 17.5779 1.01643 19.2001 1.71599C20.8223 2.41643 22.2334 3.36666 23.4334 4.56666C24.6334 5.76666 25.5832 7.17777 26.2827 8.79999C26.9832 10.4222 27.3334 12.1555 27.3334 14C27.3334 15.8444 26.9832 17.5778 26.2827 19.2C25.5832 20.8222 24.6334 22.2333 23.4334 23.4333C22.2334 24.6333 20.8223 25.5831 19.2001 26.2827C17.5779 26.9831 15.8445 27.3333 14.0001 27.3333Z" fill="#FEFEFE"/>
</svg>
